<?xml version="1.0" encoding="UTF-8" standalone="no"?>
<!-- Created with Inkscape (http://www.inkscape.org/) -->

<svg
   xmlns:dc="http://purl.org/dc/elements/1.1/"
   xmlns:cc="http://creativecommons.org/ns#"
   xmlns:rdf="http://www.w3.org/1999/02/22-rdf-syntax-ns#"
   xmlns:svg="http://www.w3.org/2000/svg"
   xmlns="http://www.w3.org/2000/svg"
   xmlns:sodipodi="http://sodipodi.sourceforge.net/DTD/sodipodi-0.dtd"
   xmlns:inkscape="http://www.inkscape.org/namespaces/inkscape"
   id="svg2"
   version="1.1"
   inkscape:version="0.48.2 r9819"
   width="1353"
   height="332"
   sodipodi:docname="unhcr_highQuality_rect_bw.svg">
  <metadata
     id="metadata8">
    <rdf:RDF>
      <cc:Work
         rdf:about="">
        <dc:format>image/svg+xml</dc:format>
        <dc:type
           rdf:resource="http://purl.org/dc/dcmitype/StillImage" />
        <dc:title></dc:title>
      </cc:Work>
    </rdf:RDF>
  </metadata>
  <defs
     id="defs6">
    <filter
       id="filter3776"
       inkscape:label="Drop shadow"
       width="1.5"
       height="1.5"
       x="-.25"
       y="-.25">
      <feGaussianBlur
         id="feGaussianBlur3778"
         in="SourceAlpha"
         stdDeviation="2"
         result="blur" />
      <feColorMatrix
         id="feColorMatrix3780"
         result="bluralpha"
         type="matrix"
         values="-1 0 0 0 1 0 -1 0 0 1 0 0 -1 0 1 0 0 0 0.5 0 " />
      <feOffset
         id="feOffset3782"
         in="bluralpha"
         dx="4"
         dy="4"
         result="offsetBlur" />
      <feMerge
         id="feMerge3784">
        <feMergeNode
           id="feMergeNode3786"
           in="offsetBlur" />
        <feMergeNode
           id="feMergeNode3788"
           in="SourceGraphic" />
      </feMerge>
    </filter>
    <clipPath
       clipPathUnits="userSpaceOnUse"
       id="clipPath3798">
      <rect
         style="color:#000000;fill:#000000;fill-opacity:0.39269403;fill-rule:nonzero;stroke:#150000;stroke-width:0.29299703;stroke-miterlimit:4;stroke-opacity:0.92694062;stroke-dasharray:none;marker:none;visibility:visible;display:inline;overflow:visible;enable-background:accumulate"
         id="rect3800"
         width="228.83682"
         height="57.577564"
         x="28.788782"
         y="257.62897" />
    </clipPath>
    <filter
       id="filter3806"
       inkscape:label="Drop shadow"
       width="1.5"
       height="1.5"
       x="-.25"
       y="-.25">
      <feGaussianBlur
         id="feGaussianBlur3808"
         in="SourceAlpha"
         stdDeviation="2"
         result="blur" />
      <feColorMatrix
         id="feColorMatrix3810"
         result="bluralpha"
         type="matrix"
         values="-1 0 0 0 1 0 -1 0 0 1 0 0 -1 0 1 0 0 0 0.5 0 " />
      <feOffset
         id="feOffset3812"
         in="bluralpha"
         dx="4"
         dy="4"
         result="offsetBlur" />
      <feMerge
         id="feMerge3814">
        <feMergeNode
           id="feMergeNode3816"
           in="offsetBlur" />
        <feMergeNode
           id="feMergeNode3818"
           in="SourceGraphic" />
      </feMerge>
    </filter>
    <filter
       id="filter3832"
       y="-0.25"
       height="1.5"
       inkscape:menu-tooltip="Darkens the edge with an inner blur and adds a flexible glow"
       inkscape:menu="Shadows and Glows"
       inkscape:label="Dark and Glow"
       color-interpolation-filters="sRGB">
      <feGaussianBlur
         id="feGaussianBlur3834"
         stdDeviation="5"
         result="result6" />
      <feComposite
         id="feComposite3836"
         in2="result6"
         result="result8"
         in="SourceGraphic"
         operator="atop" />
      <feComposite
         id="feComposite3838"
         in2="SourceAlpha"
         result="result9"
         operator="over"
         in="result8" />
      <feColorMatrix
         id="feColorMatrix3840"
         values="1 0 0 0 0 0 1 0 0 0 0 0 1 0 0 0 0 0 1 0 "
         result="result10" />
      <feBlend
         id="feBlend3842"
         in2="result6"
         in="result10"
         mode="normal" />
    </filter>
    <filter
       id="filter3844"
       inkscape:label="Glow"
       inkscape:menu="Shadows and Glows"
       inkscape:menu-tooltip="Glow of object's own color at the edges"
       color-interpolation-filters="sRGB">
      <feGaussianBlur
         id="feGaussianBlur3846"
         stdDeviation="5"
         result="result91" />
      <feComposite
         id="feComposite3848"
         in2="result91"
         in="SourceGraphic"
         operator="over" />
    </filter>
    <filter
       id="filter3886"
       inkscape:label="Drop shadow"
       width="1.5"
       height="1.5"
       x="-.25"
       y="-.25">
      <feGaussianBlur
         id="feGaussianBlur3888"
         in="SourceAlpha"
         stdDeviation="2"
         result="blur" />
      <feColorMatrix
         id="feColorMatrix3890"
         result="bluralpha"
         type="matrix"
         values="-1 0 0 0 1 0 -1 0 0 1 0 0 -1 0 1 0 0 0 0.5 0 " />
      <feOffset
         id="feOffset3892"
         in="bluralpha"
         dx="4"
         dy="4"
         result="offsetBlur" />
      <feMerge
         id="feMerge3894">
        <feMergeNode
           id="feMergeNode3896"
           in="offsetBlur" />
        <feMergeNode
           id="feMergeNode3898"
           in="SourceGraphic" />
      </feMerge>
    </filter>
    <filter
       id="filter3902"
       inkscape:label="Drop shadow"
       width="1.5"
       height="1.5"
       x="-.25"
       y="-.25">
      <feGaussianBlur
         id="feGaussianBlur3904"
         in="SourceAlpha"
         stdDeviation="2"
         result="blur" />
      <feColorMatrix
         id="feColorMatrix3906"
         result="bluralpha"
         type="matrix"
         values="1 0 0 0 0 0 1 0 0 0 0 0 1 0 0 0 0 0 0.5 0 " />
      <feOffset
         id="feOffset3908"
         in="bluralpha"
         dx="4"
         dy="4"
         result="offsetBlur" />
      <feMerge
         id="feMerge3910">
        <feMergeNode
           id="feMergeNode3912"
           in="offsetBlur" />
        <feMergeNode
           id="feMergeNode3914"
           in="SourceGraphic" />
      </feMerge>
    </filter>
  </defs>
  <sodipodi:namedview
     pagecolor="#ffffff"
     bordercolor="#666666"
     borderopacity="1"
     objecttolerance="10"
     gridtolerance="10"
     guidetolerance="10"
     inkscape:pageopacity="0"
     inkscape:pageshadow="2"
     inkscape:window-width="1366"
     inkscape:window-height="650"
     id="namedview4"
     showgrid="false"
     inkscape:zoom="1.2504871"
     inkscape:cx="225.20689"
     inkscape:cy="-41.138514"
     inkscape:window-x="0"
     inkscape:window-y="24"
     inkscape:window-maximized="1"
     inkscape:current-layer="svg2" />
  <rect
     style="color:#000000;fill:#000000;fill-opacity:0.39269403;fill-rule:nonzero;stroke:#150000;stroke-width:0.30000001;stroke-miterlimit:4;stroke-opacity:0.92694062;stroke-dasharray:none;marker:none;visibility:visible;display:inline;overflow:visible;enable-background:accumulate"
     id="rect3900"
     width="364.6579"
     height="167.93456"
     x="36.785664"
     y="213.64612" />
  <path
     style="fill:#000000;filter:url(#filter3902)"
     d="m 177.66273,311.61225 c -0.24217,-0.28779 -0.4403,-0.58713 -0.4403,-0.6652 0,-0.0781 -0.0461,-0.262 -0.10238,-0.40874 -0.087,-0.22671 0.0651,-0.26681 1.01205,-0.26681 0.6305,0 1.11443,0.0733 1.11443,0.16867 0,0.43506 0.69467,0.84338 1.43485,0.84338 1.12586,0 1.71403,-0.75247 1.75315,-2.24289 l 0.0168,-0.64048 -0.69205,0.55614 c -0.61632,0.4953 -0.80683,0.55614 -1.74123,0.55614 -2.03141,0 -3.13645,-1.29486 -3.12928,-3.66683 0.007,-2.36437 1.23055,-3.83919 3.18471,-3.83919 0.90615,0 1.54414,0.25761 1.99749,0.80654 l 0.37868,0.45852 8.4e-4,-0.54819 8.5e-4,-0.5482 0.93582,0 0.93583,0 -0.0503,4.28593 -0.0503,4.28592 -0.52433,0.64781 -0.52433,0.64781 -2.53537,0.0465 -2.53538,0.0465 -0.44029,-0.52326 z m 4.07364,-4.09286 c 1.14473,-1.03963 0.66303,-3.66245 -0.72029,-3.92196 -1.28607,-0.24126 -2.1069,0.63411 -2.1069,2.24691 0,1.85007 1.59436,2.79469 2.82719,1.67505 z m 34.0432,4.08857 c -0.24017,-0.28543 -0.43668,-0.58284 -0.43668,-0.66091 0,-0.0781 -0.0461,-0.262 -0.10238,-0.40874 -0.0869,-0.22653 0.0641,-0.26681 1.00068,-0.26681 0.92474,0 1.11907,0.0504 1.20201,0.31175 0.19287,0.60769 1.56732,0.91584 2.3106,0.51805 0.1873,-0.10024 0.44797,-0.43937 0.57928,-0.75362 0.23803,-0.56973 0.33048,-1.76293 0.13658,-1.76293 -0.0562,0 -0.32222,0.18517 -0.59117,0.41148 -1.33112,1.12005 -3.60836,0.54382 -4.47516,-1.1324 -0.36167,-0.69938 -0.48965,-2.53622 -0.2408,-3.45599 0.23355,-0.86316 1.06697,-1.86018 1.81689,-2.17351 1.05952,-0.4427 2.4442,-0.23261 3.21287,0.48745 l 0.37952,0.35551 0,-0.45109 c 0,-0.43901 0.0272,-0.45109 1.01471,-0.45109 l 1.01469,0 -0.0519,4.00603 c -0.0553,4.26595 -0.11785,4.63752 -0.92341,5.48193 l -0.44251,0.46385 -2.48357,0 -2.48356,0 -0.43669,-0.51896 z m 3.72673,-3.77665 c 0.59403,-0.17019 1.13031,-1.46725 1.00139,-2.42189 -0.13784,-1.02063 -0.57189,-1.59255 -1.36012,-1.79218 -1.52647,-0.38661 -2.54669,1.37726 -1.89757,3.28077 0.21075,0.618 1.13401,1.2445 1.63329,1.10831 0.14013,-0.0382 0.42049,-0.11698 0.62301,-0.17501 z m 29.06549,3.62724 0,-0.68103 0.74699,0 c 0.80915,0 1.27711,-0.31369 1.27711,-0.85611 0,-0.17929 -0.60723,-1.93815 -1.3494,-3.90857 -0.74217,-1.97043 -1.3494,-3.64 -1.3494,-3.71016 0,-0.0702 0.48371,-0.12757 1.07493,-0.12757 l 1.07491,0 0.81312,2.53013 c 0.4472,1.39156 0.85801,2.53012 0.9129,2.53012 0.0549,0 0.45903,-1.13856 0.89809,-2.53012 l 0.79828,-2.53013 1.08924,0 1.08921,0 -0.18279,0.46386 c -0.10055,0.25512 -0.85822,2.28554 -1.68371,4.51205 -0.82551,2.2265 -1.64117,4.23795 -1.81259,4.46988 -0.28734,0.38877 -0.43206,0.42547 -1.85428,0.47018 l -1.54261,0.0485 0,-0.68103 z M 53.658564,309.91842 c -0.268062,-0.43373 2.38205,-2.632 4.4796,-3.71583 l 1.09638,-0.56652 -0.58968,-0.0575 c -0.85612,-0.0835 -2.30895,0.23537 -4.89224,1.07377 -1.25241,0.40646 -2.846385,0.82733 -3.542168,0.93526 -2.398104,0.372 -6.493951,-0.0626 -7.064033,-0.74946 -0.154765,-0.18648 0.05706,-0.24645 1.175143,-0.33267 0.898129,-0.0693 2.07413,-0.33622 3.443445,-0.78171 1.143729,-0.3721 2.86395,-0.7973 3.822715,-0.9449 2.398118,-0.36918 5.944098,-0.36577 7.562488,0.007 1.52053,0.35049 1.31457,0.35084 2.86746,-0.005 1.60707,-0.36812 4.96783,-0.37214 7.47146,-0.009 1.03059,0.14952 2.69891,0.55875 3.84398,0.94292 1.27169,0.42665 2.53752,0.72776 3.40806,0.81068 l 1.38493,0.13193 -0.5626,0.35471 c -0.82311,0.51897 -2.9232,0.79318 -5.23533,0.68358 -1.72697,-0.0819 -2.25183,-0.18647 -4.39624,-0.87618 -2.74857,-0.88403 -4.42711,-1.27341 -5.46143,-1.26691 l -0.70584,0.004 1.21924,0.64724 c 1.3026,0.69149 2.7192,1.70405 3.88477,2.77676 0.56476,0.51977 0.67762,0.71045 0.52754,0.89129 -0.10501,0.12653 -0.26693,0.23005 -0.35981,0.23005 -0.0929,0 -0.87755,-0.67749 -1.7437,-1.50553 -1.74618,-1.66936 -3.6677,-2.78996 -4.77659,-2.78564 -1.18514,0.005 -3.82632,1.6826 -5.65917,3.59534 -0.67804,0.7076 -0.99384,0.84237 -1.19838,0.51142 z m 71.089696,0.022 c -0.42647,-0.0768 -1.0079,-0.2598 -1.29205,-0.40674 -0.68016,-0.35173 -1.52483,-1.39136 -1.73025,-2.12963 -0.0904,-0.3247 -0.16469,-2.27922 -0.16521,-4.34337 l -9.4e-4,-3.75302 1.09638,0 1.09639,0 3.4e-4,3.58434 c 3.3e-4,3.92163 0.12355,4.52725 1.01178,4.97107 0.57477,0.2872 1.9362,0.2698 2.52021,-0.0322 0.75123,-0.38851 0.85321,-0.97673 0.85321,-4.92186 l 0,-3.60134 1.19651,0 1.1965,0 -0.0644,3.92169 c -0.0691,4.20949 -0.14678,4.63512 -1.01751,5.57466 -0.87548,0.94465 -2.96292,1.44927 -4.701,1.13641 z m -13.28501,-0.37039 c -2.28503,-1.13106 -2.69954,-4.74034 -0.75623,-6.58474 0.66633,-0.63242 1.58214,-0.97883 2.58773,-0.97883 2.08095,0 3.46713,1.34971 3.66865,3.57213 l 0.0891,0.98209 -2.72222,0 -2.72223,0 0,0.43466 c 0,0.25551 0.20322,0.63787 0.49305,0.92771 0.40369,0.40369 0.63532,0.49305 1.27804,0.49305 0.64731,0 0.87374,-0.0888 1.29101,-0.50603 0.42705,-0.42705 0.63739,-0.50602 1.34779,-0.50602 0.79465,0 0.83531,0.0212 0.72648,0.37952 -0.20874,0.6872 -0.9531,1.50737 -1.65895,1.82791 -0.99058,0.44984 -2.66844,0.43064 -3.62217,-0.0414 z m 3.42772,-4.73827 c -0.31893,-1.06861 -0.9229,-1.43944 -2.0117,-1.23518 -0.62488,0.11723 -1.27126,0.77827 -1.27126,1.3001 0,0.28618 0.15338,0.3146 1.69811,0.3146 1.68212,0 1.69705,-0.004 1.58485,-0.37952 z m 42.68087,4.79131 c -1.38755,-0.66027 -2.10843,-1.88034 -2.10843,-3.56842 0,-2.47851 1.71983,-4.18827 4.03703,-4.01339 1.87001,0.14112 2.98209,1.14658 3.37812,3.05422 0.31752,1.52951 0.40277,1.48209 -2.61774,1.45637 -1.44631,-0.0123 -2.66955,0.0175 -2.7183,0.0663 -0.21956,0.21956 0.34192,1.31411 0.79403,1.54791 0.87474,0.45234 2.26315,0.18102 2.65479,-0.51881 0.1103,-0.19709 0.36578,-0.24985 1.02107,-0.21084 l 0.87396,0.052 -0.36244,0.73065 c -0.56054,1.13002 -1.43702,1.62025 -3,1.67794 -0.97967,0.0362 -1.43464,-0.0277 -1.95209,-0.27391 z m 3.20996,-4.87565 c -0.24744,-0.99148 -1.28593,-1.4669 -2.29301,-1.04975 -0.46812,0.1939 -1.00129,0.9056 -1.00129,1.33656 0,0.11194 0.62702,0.17705 1.70504,0.17705 l 1.70503,0 -0.11577,-0.46386 z m 9.09463,4.92506 c -1.02974,-0.50821 -1.16588,-0.99826 -1.22763,-4.41903 l -0.0556,-3.07832 1.02545,0 1.02544,0 0.0168,2.40362 c 0.0194,2.76801 0.083,3.09618 0.68761,3.54761 0.36602,0.27327 0.55662,0.30469 1.09237,0.18008 1.04615,-0.24333 1.23877,-0.82283 1.23909,-3.72769 l 2.6e-4,-2.40362 1.01204,0 1.01205,0 0,3.79519 0,3.79518 -0.92771,0 -0.92771,0 0,-0.53759 0,-0.53758 -0.46386,0.43264 c -0.25512,0.23795 -0.62964,0.51781 -0.83228,0.62192 -0.52394,0.26918 -2.06894,0.22738 -2.67637,-0.0724 z m 17.8455,0.037 c -1.33649,-0.4848 -2.22471,-1.91324 -2.23074,-3.58749 -0.007,-1.85781 0.66199,-3.04776 2.08499,-3.71035 2.55566,-1.18998 4.99105,0.23469 5.42138,3.17143 0.10946,0.747 0.0917,0.79963 -0.30278,0.89865 -0.23048,0.0579 -1.4911,0.0803 -2.80136,0.0499 -2.64802,-0.0615 -2.68854,-0.0413 -2.12075,1.05673 0.55846,1.07993 2.51246,1.10262 3.16296,0.0367 0.0848,-0.13891 0.478,-0.22102 1.05854,-0.22102 l 0.92366,0 -0.2766,0.54819 c -0.39433,0.78153 -1.07493,1.46533 -1.73458,1.74273 -0.67813,0.28518 -2.4167,0.2931 -3.18472,0.0145 z m 3.09074,-4.96206 c -0.23738,-1.01044 -1.3517,-1.48903 -2.37809,-1.02137 -0.41417,0.18871 -0.923,0.90987 -0.923,1.30818 0,0.11194 0.62702,0.17705 1.70503,0.17705 l 1.70504,0 -0.10898,-0.46386 z m 4.83774,4.84227 c -0.96002,-0.48926 -1.50153,-1.17178 -1.83224,-2.30937 -0.48267,-1.66033 -0.0376,-3.32171 1.17503,-4.38643 0.78156,-0.68622 1.62341,-0.94042 2.82629,-0.85342 1.86944,0.13523 3.21556,1.57834 3.25218,3.48649 l 0.0182,0.94938 -2.6988,0.0298 c -1.48433,0.0164 -2.67981,0.0733 -2.65662,0.12651 0.0232,0.0532 0.0422,0.25432 0.0422,0.447 0,0.19267 0.22187,0.57219 0.49305,0.84337 0.40369,0.40369 0.63532,0.49305 1.27803,0.49305 0.64731,0 0.87374,-0.0888 1.291,-0.50603 0.42522,-0.4252 0.63867,-0.50602 1.33643,-0.50602 0.45672,0 0.8304,0.041 0.8304,0.0911 0,0.35121 -0.77654,1.48753 -1.27789,1.86992 -0.52241,0.39846 -0.79687,0.47127 -1.98348,0.52615 -1.16007,0.0537 -1.49015,0.006 -2.09377,-0.30149 z m 3.39354,-4.51174 c 0.16675,-0.26981 -0.44243,-1.19279 -0.91702,-1.38936 -0.99085,-0.41043 -2.35029,0.28835 -2.35029,1.20809 0,0.2848 0.15083,0.3146 1.59245,0.3146 0.87585,0 1.62954,-0.06 1.67486,-0.13333 z m 26.67098,4.54165 c -0.85037,-0.38632 -1.69791,-1.33962 -1.92817,-2.16877 -0.8068,-2.90532 0.91132,-5.42955 3.7032,-5.44067 1.81973,-0.007 3.10805,1.1055 3.54296,3.06014 0.33357,1.49915 0.40841,1.45717 -2.64114,1.48168 -1.46298,0.0118 -2.68997,0.0514 -2.72666,0.0881 -0.21265,0.21264 0.3906,1.306 0.8523,1.54476 0.76271,0.39441 1.9518,0.22504 2.4043,-0.34245 0.29599,-0.3712 0.48411,-0.43831 1.22871,-0.43831 0.48356,0 0.8792,0.048 0.8792,0.1066 0,0.20467 -0.74446,1.32969 -1.0877,1.64371 -0.89805,0.82162 -2.94629,1.04705 -4.227,0.46524 z m 3.29061,-4.75864 c 0,-0.55097 -0.89408,-1.33643 -1.52125,-1.33643 -0.90097,0 -1.85225,0.78372 -1.85225,1.52601 0,0.0912 0.73023,0.16074 1.68675,0.16074 1.59512,0 1.68675,-0.019 1.68675,-0.35032 z m 13.40264,4.75616 c -1.30527,-0.59291 -2.10145,-1.91717 -2.10145,-3.49531 0,-1.38799 0.31349,-2.24271 1.11808,-3.04849 1.71915,-1.7217 5.06258,-1.33744 5.98221,0.68754 0.48076,1.05861 0.44753,1.11307 -0.67928,1.11307 -0.84813,0 -1.01679,-0.0508 -1.10636,-0.33295 -0.14787,-0.46591 -0.89637,-1.01645 -1.38191,-1.01645 -1.42993,0 -2.25417,1.70092 -1.73322,3.57667 0.36422,1.31141 1.78407,1.7428 2.70502,0.82185 0.27118,-0.27118 0.49305,-0.61274 0.49305,-0.75904 0,-0.21303 0.20417,-0.26598 1.02546,-0.26598 l 1.02544,0 -0.11342,0.54819 c -0.15057,0.72788 -0.88788,1.64086 -1.70051,2.10566 -0.85081,0.48665 -2.53683,0.51779 -3.53311,0.0652 z m -147.161606,-4.15283 0,-4.3012 -1.60241,0 -1.60241,0 0,-0.92771 0,-0.92772 4.30121,0 4.301196,0 0,0.92139 0,0.92138 -1.560236,0.0485 -1.56024,0.0485 -0.0451,4.25904 -0.0451,4.25904 -1.09349,0 -1.09349,0 0,-4.30121 z m 6.112016,-0.88554 0.0446,-5.18675 1.05422,-0.0502 1.05421,-0.0502 0.005,1.98997 c 0.004,1.43943 0.0529,1.90799 0.17772,1.69361 0.27141,-0.46606 1.4206,-0.96872 2.21404,-0.96843 0.9559,3.4e-4 1.81312,0.45292 2.23592,1.18046 0.30264,0.52075 0.35001,0.94439 0.40179,3.59282 l 0.0587,3.00245 -1.07075,-0.0506 -1.07075,-0.0506 -0.0324,-2.58693 c -0.0389,-3.10931 -0.15059,-3.40102 -1.30224,-3.40102 -0.47333,0 -0.87873,0.11507 -1.13466,0.32207 -0.38407,0.31064 -0.40011,0.41844 -0.45198,3.03614 l -0.0538,2.71408 -1.08722,0 -1.08721,0 0.0446,-5.18675 z m 30.65905,-0.0422 0,-5.22892 1.16506,0 1.16506,0 1.47133,2.40362 c 0.80923,1.32199 1.78405,2.89361 2.16626,3.4925 l 0.69493,1.08889 0.0456,-3.50046 0.0456,-3.50046 1.05077,0.0501 1.05077,0.0501 0.0473,4.80723 c 0.026,2.64398 0.005,4.98143 -0.0473,5.19434 -0.0884,0.36198 -0.16724,0.38388 -1.21403,0.33735 l -1.11944,-0.0498 -2.12242,-3.40344 -2.12242,-3.40344 -0.0456,3.44561 -0.0456,3.44561 -1.09296,0 -1.09296,0 0,-5.22892 z m 13.66264,0 0,-5.22892 3.09531,0 c 1.86642,0 3.32295,0.0763 3.66867,0.19204 1.20395,0.40325 1.88656,1.41386 1.87432,2.77498 -0.009,1.04513 -0.3782,1.82995 -1.05273,2.24015 l -0.49443,0.30069 0.5111,0.37787 c 0.64262,0.47512 0.80482,0.90488 0.98642,2.61371 0.08,0.75242 0.19979,1.50087 0.26629,1.66322 0.10838,0.2646 -0.002,0.29518 -1.06573,0.29518 l -1.18664,0 -0.10507,-0.96988 c -0.21011,-1.93935 -0.30165,-2.29537 -0.68997,-2.6837 -0.35859,-0.35859 -0.54163,-0.39462 -2.00469,-0.39462 l -1.61008,0 0,2.0241 0,2.0241 -1.09638,0 -1.09639,0 0,-5.22892 z m 5.85935,-0.76388 c 0.46761,-0.32753 0.65429,-1.27662 0.38091,-1.93661 -0.26434,-0.63818 -1.06883,-0.87478 -2.74333,-0.80684 l -1.21982,0.0495 -0.0487,1.4759 -0.0487,1.47591 1.65578,0 c 1.21265,0 1.75431,-0.069 2.02393,-0.25786 z m 12.86353,2.87231 0,-3.12048 -0.59036,0 c -0.5763,0 -0.59036,-0.0161 -0.59036,-0.6747 0,-0.65863 0.014,-0.6747 0.59036,-0.6747 0.55355,0 0.59038,-0.0342 0.59062,-0.54819 6.8e-4,-1.41029 1.0738,-2.31928 2.73807,-2.31928 l 0.97251,0 0,0.75904 c 0,0.74978 -0.007,0.75904 -0.56971,0.75904 -0.63679,0 -0.86382,0.20376 -0.98667,0.88554 -0.0807,0.44789 -0.0583,0.46385 0.65206,0.46385 l 0.73565,0 0,0.665 c 0,0.65884 -0.006,0.66549 -0.69863,0.71687 l -0.69864,0.0519 0.0337,2.78605 c 0.0185,1.53233 -0.0168,2.91757 -0.0785,3.07832 -0.0888,0.23148 -0.31886,0.29226 -1.10615,0.29226 l -0.994,0 0,-3.12049 z m 40.5735,1.98193 c 0.23432,-0.6262 1.12553,-2.97902 1.98047,-5.22849 l 1.55444,-4.08993 1.20322,-5.1e-4 c 1.00068,-3.4e-4 1.2178,0.0493 1.28986,0.29475 0.0477,0.16235 0.91917,2.51537 1.93669,5.22892 l 1.85004,4.93374 -1.20911,0 -1.20911,0 -0.38198,-1.18598 -0.38197,-1.18598 -1.95659,0.0474 -1.95659,0.0474 -0.41674,1.13855 -0.41675,1.13856 -1.15596,0 -1.15596,0 0.42604,-1.13856 z m 5.97884,-3.03614 c -0.002,-0.0696 -0.26669,-0.87442 -0.59036,-1.78854 -0.32369,-0.91411 -0.59082,-1.7111 -0.59364,-1.77108 -0.0118,-0.24977 -0.35452,0.52616 -0.90853,2.05663 l -0.58984,1.62949 1.34211,0 c 0.73816,0 1.34127,-0.0569 1.34026,-0.1265 z m 21.08618,0.38756 0,-3.80323 1.01205,0 1.01204,0 0,0.53783 0,0.53783 0.36124,-0.38774 c 1.16928,-1.25508 3.5312,-1.10391 4.38699,0.28079 0.33259,0.53816 0.3756,0.88528 0.44707,3.60855 l 0.0791,3.01311 -1.11911,0 -1.1191,0 -0.003,-2.57229 c -0.003,-3.17902 -0.0827,-3.39542 -1.27577,-3.4655 -1.38583,-0.0814 -1.48751,0.1306 -1.58922,3.31386 l -0.0843,2.63959 -1.05422,0.0502 -1.05421,0.0502 0,-3.80323 z M 42.631443,304.04862 c -1.679005,-0.5981 -3.513893,-1.79863 -4.223233,-2.76319 -0.278665,-0.37892 -0.477043,-0.71857 -0.44084,-0.75477 0.0362,-0.0362 0.357818,0.081 0.714699,0.26046 0.935543,0.47045 1.634409,0.6716 3.347668,0.96355 0.83494,0.14229 2.561708,0.56709 3.837263,0.94402 1.275557,0.37692 2.397727,0.65914 2.493714,0.62714 0.09599,-0.032 -0.412967,-0.47544 -1.131012,-0.98544 -0.718046,-0.50999 -1.547518,-1.24452 -1.843274,-1.63228 -0.538271,-0.70573 -0.69006,-1.0629 -1.455326,-3.42456 -0.22546,-0.69578 -0.468983,-1.39789 -0.541162,-1.56024 -0.399397,-0.89835 1.221713,0.44978 3.010762,2.50377 0.657414,0.75477 1.423008,1.81419 1.701321,2.35427 0.278313,0.54008 0.829451,1.39963 1.22475,1.9101 0.395299,0.51048 0.660961,0.97965 0.590361,1.0426 -0.284367,0.25357 -3.154391,0.85471 -4.465496,0.93532 -1.250342,0.0769 -1.547862,0.0325 -2.820195,-0.42075 z m 31.952491,0.37919 c -2.11381,-0.43619 -3.46992,-0.78641 -3.5506,-0.91694 -0.0542,-0.0876 0.1608,-0.46228 0.47771,-0.83251 0.31691,-0.37024 0.90902,-1.29152 1.3158,-2.0473 0.91089,-1.69241 3.69127,-4.7838 4.62465,-5.14197 0.26674,-0.10236 0.26821,-0.0738 0.0208,0.40467 -0.14642,0.28314 -0.45459,1.16485 -0.68483,1.95935 -0.23023,0.79449 -0.54201,1.68318 -0.69284,1.97485 -0.41675,0.8059 -1.56386,1.97575 -2.69118,2.74451 -0.62412,0.42561 -0.91173,0.71046 -0.75005,0.74286 0.14422,0.0289 1.10769,-0.21253 2.14103,-0.53652 1.03334,-0.32399 2.86381,-0.77777 4.06769,-1.00841 1.31565,-0.25205 2.5374,-0.59595 3.06249,-0.86203 0.48048,-0.24347 0.91459,-0.40169 0.96468,-0.3516 0.0501,0.0501 -0.10922,0.35371 -0.35404,0.67469 -1.65772,2.17339 -5.4741,3.70754 -7.9513,3.19635 z m -31.65977,-4.02895 c -0.04419,-0.0442 -0.794833,-0.23113 -1.668105,-0.41544 -2.27804,-0.48078 -4.065701,-1.40292 -5.320866,-2.74469 -1.129851,-1.20782 -2.185389,-3.08049 -2.358105,-4.18361 l -0.117033,-0.74748 1.376247,1.30999 c 0.756935,0.7205 1.812222,1.58724 2.345083,1.92609 0.53286,0.33886 1.500162,1.12223 2.149559,1.74083 1.284297,1.2234 1.895998,1.68575 2.230301,1.68575 0.306482,0 0.267518,-0.3337 -0.128779,-1.10289 -0.189343,-0.36751 -0.576752,-1.31338 -0.860908,-2.10193 -0.428136,-1.18811 -0.530648,-1.76606 -0.598357,-3.3735 l -0.08171,-1.93976 0.428149,0.50603 c 0.800316,0.94588 2.142024,3.83811 2.315657,4.99171 0.55396,3.68045 0.625728,4.78576 0.288864,4.4489 z m 34.83988,-0.41949 c 0.0622,-0.31108 0.22593,-1.53091 0.3638,-2.71071 0.19202,-1.64323 0.36808,-2.40677 0.75247,-3.26352 0.52466,-1.16936 1.94006,-3.46858 2.13527,-3.46858 0.0622,0 0.0688,0.77801 0.0146,1.72892 -0.104,1.82519 -0.63757,3.87184 -1.40571,5.39198 -0.52157,1.03218 -0.52791,1.37485 -0.0225,1.21714 0.42021,-0.13113 1.62157,-1.09623 2.40361,-1.93092 0.27831,-0.29705 1.0753,-0.92454 1.77108,-1.39442 0.69579,-0.46988 1.82548,-1.39147 2.51043,-2.04797 l 1.24537,-1.19365 -0.11813,0.6747 c -0.18309,1.04573 -1.20536,2.97364 -2.12227,4.00239 -1.39545,1.56567 -2.96566,2.39693 -5.64792,2.99 -0.74217,0.1641 -1.49427,0.35954 -1.67133,0.43431 -0.29059,0.12271 -0.31091,0.0809 -0.2088,-0.42967 z m -30.167248,-4.40749 c -0.55619,-0.0941 -1.095996,-0.24145 -1.19957,-0.32741 -0.103573,-0.086 -0.230958,-0.81986 -0.283075,-1.63089 -0.05212,-0.81104 -0.212372,-2.57521 -0.356121,-3.92039 -0.383515,-3.58884 -0.607812,-8.00292 -0.607812,-11.9615 0,-3.44081 0.0064,-3.50311 0.448626,-4.39061 0.539979,-1.0836 2.865015,-3.54722 5.792334,-6.13758 1.159638,-1.02616 3.095176,-2.82456 4.301206,-3.99644 1.20602,-1.17189 2.56361,-2.34674 3.01687,-2.61077 0.80397,-0.46834 0.83005,-0.47214 1.06759,-0.15544 0.16347,0.21794 0.2214,0.607 0.17626,1.18381 -0.13846,1.76927 -1.77671,3.59057 -6.358105,7.06853 -2.37345,1.8018 -3.548203,3.63264 -3.67981,5.73494 -0.09577,1.5299 0.129277,2.15017 0.753755,2.07746 0.669385,-0.0779 1.137236,-0.89486 1.908749,-3.33289 0.809138,-2.55693 1.454611,-3.75447 2.187221,-4.05793 0.84547,-0.3502 1.09955,0.0376 1.08201,1.65161 -0.0121,1.11234 -0.15034,1.7026 -0.95641,4.08343 -0.51825,1.53073 -1.03035,3.23856 -1.13799,3.79518 -0.233254,1.20621 -0.955646,4.01099 -1.216413,4.7229 -0.101945,0.27831 -0.458188,1.0753 -0.791651,1.77108 l -0.606294,1.26506 -0.05481,4.34777 c -0.05448,4.32181 -0.05712,4.34928 -0.442522,4.6018 -0.514612,0.33719 -1.797669,0.4292 -3.044041,0.21828 z m 10.998228,-0.0172 c -0.23634,-0.17651 -0.28966,-0.59539 -0.32742,-2.57229 l -0.0451,-2.36144 -0.67256,-0.0547 c -0.36991,-0.0301 -0.7684,-0.13428 -0.88554,-0.2315 -0.3236,-0.26856 -0.30629,-13.58563 0.0187,-14.36336 0.23123,-0.55342 0.68111,-0.97684 1.7881,-1.68298 0.32231,-0.20559 0.6982,-0.57367 0.83531,-0.81795 0.23411,-0.4171 0.21127,-0.51806 -0.37518,-1.65811 -0.88475,-1.71995 -0.78929,-3.32745 0.24303,-4.09262 0.57318,-0.42485 1.9872,-0.4492 2.60432,-0.0448 1.0491,0.68739 1.21693,2.81885 0.32776,4.16248 -0.84158,1.27171 -0.60231,1.93373 1.02168,2.82683 1.45062,0.79775 1.4197,0.61148 1.4197,8.55398 0,5.38325 -0.0478,6.97946 -0.21298,7.11657 -0.11714,0.0972 -0.51563,0.20139 -0.88554,0.2315 l -0.67256,0.0547 -0.0471,2.35014 c -0.0277,1.38108 -0.12315,2.44174 -0.2315,2.57229 -0.24984,0.30104 -3.50249,0.31046 -3.90306,0.0113 z m 12.42219,0.0941 c -0.83982,-0.16427 -0.8738,-0.34441 -0.93255,-4.9435 l -0.0549,-4.30121 -0.62605,-1.26506 c -0.67011,-1.35409 -1.21807,-3.11187 -1.81406,-5.81928 -0.20422,-0.92771 -0.78678,-2.91954 -1.29457,-4.4263 -1.00339,-2.97729 -1.27399,-4.67596 -0.86656,-5.43967 0.30992,-0.58092 0.66904,-0.60103 1.29699,-0.0727 0.69057,0.58108 0.99295,1.20195 1.85834,3.81583 0.853,2.57644 1.25924,3.25532 1.94793,3.25532 0.41641,0 0.51147,-0.0872 0.64354,-0.59036 0.36787,-1.40148 -0.19946,-3.44751 -1.43343,-5.16961 -0.32193,-0.44927 -1.58683,-1.57307 -3.00825,-2.67267 -3.16429,-2.44787 -4.46412,-3.74943 -5.09867,-5.10542 -0.46868,-1.00155 -0.62787,-1.99463 -0.3832,-2.39051 0.21558,-0.34883 0.91797,-0.17296 1.7229,0.43139 0.44777,0.33619 1.72497,1.49464 2.83822,2.57434 1.11326,1.07969 2.9036,2.73732 3.97855,3.68362 2.90603,2.55824 5.25377,5.06216 5.8074,6.19373 l 0.47024,0.96114 -0.10564,5.25905 c -0.062,3.08513 -0.24271,6.68838 -0.43724,8.71687 -0.18237,1.90181 -0.38445,4.19718 -0.44906,5.10084 -0.0646,0.90365 -0.202,1.71171 -0.30532,1.79568 -0.3886,0.31582 -2.85588,0.58422 -3.75457,0.40843 z m 31.086866,-0.99598 c -5.160546,-0.93237 -8.333806,-3.5963 -9.456676,-7.93883 -0.50992,-1.97202 -0.62106,-4.7415 -0.57086,-14.22556 l 0.0495,-9.36145 4.72289,0 4.722886,0 0.0928,10.12048 c 0.0802,8.74443 0.13019,10.23165 0.36795,10.9381 0.69137,2.05424 1.98544,2.97824 4.16878,2.97663 1.75127,-10e-4 2.44097,-0.22934 3.30412,-1.09249 1.34159,-1.34159 1.31812,-1.1313 1.42137,-12.7379 l 0.0908,-10.20482 4.38554,-0.0474 c 2.41205,-0.0261 4.55632,-0.006 4.76506,0.0454 l 0.37952,0.0928 -10e-4,10.0751 c -0.001,10.70191 -0.0833,12.10996 -0.83393,14.27504 -0.79173,2.28366 -2.37877,4.29682 -4.24828,5.38893 -1.20821,0.70579 -3.37066,1.4338 -5.08466,1.71178 -1.96572,0.31881 -6.47145,0.31022 -8.27582,-0.0158 z m 102.69665,0.0293 c -3.09926,-0.59464 -5.44935,-1.7871 -7.65229,-3.88285 -6.05824,-5.76344 -6.28352,-17.65045 -0.45211,-23.85535 2.64209,-2.81131 6.13485,-4.29336 10.67072,-4.52778 6.31531,-0.3264 11.13868,2.08701 13.42599,6.7178 0.76927,1.55743 1.462,3.92235 1.46433,4.99904 l 0.002,0.54819 -4.59639,-2.4e-4 -4.59638,-2.3e-4 -0.29,-0.96965 c -0.38741,-1.29538 -1.35286,-2.52744 -2.40429,-3.06827 -0.71747,-0.36905 -1.05921,-0.4315 -2.36144,-0.4315 -1.24354,0 -1.66541,0.0704 -2.30192,0.38399 -1.60116,0.78889 -2.72892,2.39786 -3.29972,4.70767 -0.44322,1.79364 -0.3913,5.30932 0.10487,7.09928 0.89279,3.22077 2.73276,4.78636 5.62881,4.78942 1.52196,0.002 2.79428,-0.59432 3.55078,-1.66314 0.5235,-0.73963 1.26838,-2.55894 1.28169,-3.13047 0.006,-0.27393 0.34685,-0.29518 4.72977,-0.29518 l 4.72289,0 -0.003,0.71687 c -0.01,2.41521 -1.44139,5.68479 -3.44143,7.86021 -1.44672,1.57355 -4.11332,3.1295 -6.45067,3.76395 -1.67754,0.45535 -5.91874,0.58604 -7.73146,0.23824 z m -78.47674,-15.99493 0.0431,-15.56024 4.55421,-0.0474 c 2.50482,-0.026 4.70602,-0.009 4.89157,0.0374 0.36041,0.0906 0.40381,0.15734 1.77041,2.72135 0.49076,0.92076 0.94586,1.75001 1.01134,1.84278 0.0655,0.0928 0.42529,0.73795 0.79958,1.43373 2.55935,4.75773 5.66179,10.3994 5.79267,10.53374 0.0958,0.0983 0.15611,-3.08198 0.15611,-8.22569 l 0,-8.38594 4.42771,0.045 4.42771,0.045 0.043,15.56291 0.043,15.56291 -4.65034,-0.0448 -4.65033,-0.0448 -1.94585,-3.45783 c -1.84124,-3.27195 -2.93386,-5.21877 -5.67993,-10.12049 -0.64966,-1.15964 -1.35726,-2.41204 -1.57244,-2.78313 l -0.39123,-0.6747 -0.002,8.56024 -0.002,8.56024 -4.55509,0 -4.55509,0 0.043,-15.56024 z m 33.90704,0 0.0396,-15.56024 4.72289,0 4.72289,0 0.0843,5.36448 0.0843,5.36447 4.46987,0.009 4.46988,0.009 0.0843,-5.37312 0.0843,-5.37312 4.72288,0 4.72289,0 0.0395,15.56024 0.0395,15.56024 -4.80457,0 -4.80456,0 0,-6.15662 0,-6.15663 -4.55422,0 -4.55421,0 0,6.15663 0,6.15662 -4.80466,0 -4.80465,0 0.0396,-15.56024 z m 66.28568,0 0.043,-15.56024 10.12048,0 c 11.27325,0 11.06033,-0.0186 13.51838,1.18288 2.09999,1.0265 3.52732,2.59857 4.29845,4.73435 0.52534,1.45504 0.53411,4.25421 0.0185,5.91025 -0.62889,2.01989 -1.95094,3.70199 -3.5546,4.52265 l -0.56263,0.28792 0.73362,0.46524 c 1.64211,1.0414 2.95992,3.11663 3.43939,5.41623 0.12865,0.61698 0.31527,2.21635 0.41472,3.55415 0.1626,2.18727 0.44061,3.9221 0.76187,4.75429 0.10847,0.281 -0.15494,0.29531 -4.65819,0.25302 l -4.77317,-0.0448 -0.20143,-0.78991 c -0.1108,-0.43444 -0.28899,-1.57299 -0.396,-2.53012 -0.51543,-4.61062 -0.76315,-5.56414 -1.67166,-6.43433 -0.87431,-0.83744 -1.45865,-0.95685 -4.79201,-0.97921 l -3.08128,-0.0207 -0.0445,5.41929 -0.0445,5.41928 -4.80578,0 -4.80576,0 0.043,-15.56024 z m 16.49381,-2.16743 c 1.64249,-0.35225 2.46629,-1.52384 2.31914,-3.29822 -0.17989,-2.16936 -1.56145,-2.75724 -6.47968,-2.75724 l -2.76011,0 0,3.12048 0,3.12049 3.02784,0 c 1.66531,0 3.41708,-0.0835 3.89281,-0.18551 z M 37.102008,293.27605 c -2.44671,-1.29423 -4.648175,-4.266 -5.254467,-7.09305 -0.277656,-1.29467 -0.23775,-1.38543 0.240931,-0.54799 0.235487,0.41198 1.241958,1.58912 2.236601,2.61586 0.994644,1.02674 2.06625,2.26467 2.381348,2.75094 0.808377,1.24754 1.152697,1.13555 0.597089,-0.19421 -0.389761,-0.93283 -0.347932,-3.74206 0.08041,-5.40043 0.189538,-0.73382 0.344615,-1.47388 0.344615,-1.64458 0,-0.57129 0.32218,-0.31839 0.517857,0.4065 0.332102,1.23028 0.657156,3.70126 0.649026,4.93374 -0.0091,1.37851 -0.524763,4.50887 -0.755411,4.58569 -0.08715,0.029 -0.554253,-0.15658 -1.038,-0.41247 z m 45.331406,-0.8419 c -0.504,-2.76103 -0.33127,-6.90325 0.35861,-8.59979 l 0.18969,-0.46647 0.16228,0.59036 c 0.0892,0.3247 0.27278,0.93192 0.40785,1.34939 0.13506,0.41747 0.29003,1.61071 0.34437,2.65165 0.0811,1.55386 0.0469,2.02857 -0.19133,2.6523 -0.15957,0.41783 -0.26562,0.9217 -0.23566,1.11972 0.0435,0.28752 0.20455,0.13278 0.79971,-0.7684 0.40988,-0.62063 1.45638,-1.82437 2.32555,-2.67498 0.86917,-0.8506 1.8131,-1.90709 2.09764,-2.34776 0.28453,-0.44066 0.5426,-0.8012 0.57348,-0.8012 0.15878,0 -0.19095,1.41369 -0.61973,2.50511 -0.63876,1.62592 -2.00798,3.58503 -3.16333,4.52617 -0.84901,0.6916 -2.34608,1.57113 -2.67426,1.57113 -0.0749,0 -0.24363,-0.58825 -0.37487,-1.30723 z m 2.86877,-6.49075 c -0.10439,-0.48673 -0.48512,-1.42306 -0.84607,-2.08073 -0.92022,-1.6767 -1.3546,-3.06732 -1.35153,-4.32681 0.002,-0.94799 0.19691,-1.69031 0.38702,-1.47634 0.0388,0.0437 0.45493,0.80053 0.92467,1.68186 0.85744,1.60871 1.26672,2.85681 1.48308,4.52265 0.064,0.49287 0.17558,0.83444 0.24793,0.75903 0.0724,-0.0754 0.47407,-1.14842 0.89273,-2.38447 0.41865,-1.23605 1.06471,-2.75412 1.43568,-3.37349 0.37097,-0.61937 0.80783,-1.41077 0.9708,-1.75866 0.16296,-0.34789 0.35815,-0.63253 0.43373,-0.63253 0.25775,0 0.13825,1.96698 -0.1998,3.28872 -0.5747,2.24707 -2.43205,5.41508 -3.70704,6.32295 l -0.48141,0.3428 -0.18979,-0.88498 z m -50.880326,-0.003 c -1.270834,-1.34344 -2.103016,-2.72028 -2.829093,-4.68072 -0.514081,-1.38804 -0.840812,-3.46145 -0.650011,-4.12491 0.142928,-0.49701 0.144876,-0.49534 0.68861,0.59036 0.299902,0.59882 0.804943,1.54419 1.122313,2.10082 0.31737,0.55662 0.890476,1.97982 1.273568,3.16265 0.695781,2.14828 1.00145,2.63629 1.003679,1.60241 0.0024,-1.13608 0.665071,-3.2904 1.493476,-4.85558 0.462073,-0.87304 0.916701,-1.61287 1.010284,-1.64406 0.286204,-0.0954 0.422119,1.48089 0.221372,2.5674 -0.106873,0.57843 -0.587915,1.83493 -1.107499,2.89281 -0.505208,1.02862 -0.970709,2.1482 -1.034447,2.48796 -0.06374,0.33975 -0.205492,0.61773 -0.315009,0.61773 -0.109516,0 -0.504276,-0.32259 -0.877243,-0.71687 z m -0.29752,-5.65179 c -0.519563,-1.0218 -1.044771,-3.14045 -1.201862,-4.84821 -0.156116,-1.69716 0.505548,-4.74772 1.29878,-5.98795 l 0.377587,-0.59036 0.148514,1.77109 c 0.202773,2.41814 0.222714,4.20207 0.06599,5.90361 l -0.132055,1.43374 0.599977,-1.25437 c 0.469714,-0.98203 0.921627,-1.57206 2.081449,-2.71762 0.81481,-0.80479 1.647376,-1.55204 1.850148,-1.66056 0.342659,-0.18339 0.357386,-0.17015 0.208695,0.1875 -0.08799,0.21164 -0.364558,0.91613 -0.614596,1.56553 -0.453567,1.178 -1.259245,2.56588 -1.860427,3.20482 -0.950621,1.01032 -1.800276,2.32163 -2.185834,3.37349 l -0.185482,0.50602 -0.450886,-0.88673 z m 51.708726,-0.34423 c -0.30696,-0.6268 -1.00764,-1.66891 -1.55708,-2.31579 -1.157,-1.36219 -1.84752,-2.58159 -2.41986,-4.2733 l -0.40696,-1.20287 0.53124,0.37037 c 1.2953,0.90307 2.9368,2.76105 3.62083,4.09834 l 0.69022,1.3494 -0.11882,-1.3494 c -0.18946,-2.1516 -0.065,-7.36309 0.18178,-7.60984 0.19894,-0.19894 0.99531,1.69532 1.30892,3.11343 0.58296,2.63607 0.28857,5.71324 -0.76501,7.99641 -0.24616,0.53343 -0.46097,0.96831 -0.47736,0.96639 -0.0164,-0.002 -0.28095,-0.51633 -0.5879,-1.14314 z m -49.880221,-6.4018 c -0.06877,-0.16234 -0.162418,-1.15093 -0.208103,-2.19686 -0.08956,-2.05032 0.139193,-3.09961 1.086331,-4.98311 0.373161,-0.74208 1.530001,-2.06902 1.676271,-1.92274 0.07555,0.0755 -0.504846,2.93293 -0.966715,4.75934 -0.585779,2.3164 -0.58677,2.28632 0.05003,1.51807 1.490502,-1.79817 2.084022,-2.31011 3.417844,-2.94803 0.747224,-0.35737 1.383923,-0.62456 1.414887,-0.59376 0.09774,0.0972 -1.067985,1.81898 -1.848183,2.72976 -0.412116,0.48109 -1.316088,1.32529 -2.008827,1.87599 -0.692739,0.55071 -1.482461,1.23872 -1.754938,1.52891 -0.570583,0.60767 -0.686365,0.63902 -0.858594,0.23243 z m 48.234931,-0.22803 c -0.27247,-0.28776 -1.08134,-0.97858 -1.79747,-1.53515 -1.54196,-1.19838 -3.83876,-3.92703 -3.84188,-4.56424 -6.8e-4,-0.1494 2.22289,0.94167 2.91359,1.42961 0.25764,0.18201 0.89126,0.86086 1.40804,1.50854 0.51677,0.64769 0.97755,1.13966 1.02393,1.09328 0.0464,-0.0464 -0.0675,-0.4902 -0.2531,-0.98624 -0.1856,-0.49605 -0.4955,-1.83249 -0.68868,-2.96987 -0.19317,-1.13738 -0.4344,-2.22338 -0.53606,-2.41334 -0.61745,-1.1537 0.98262,0.20378 1.68048,1.4257 0.63868,1.11832 1.19815,3.26007 1.19815,4.58675 0,1.11073 -0.31022,2.94818 -0.49775,2.94818 -0.0626,0 -0.33677,-0.23545 -0.60925,-0.52322 z m -45.395389,-5.63341 c 0.174415,-1.0782 1.227165,-2.38177 2.887163,-3.57503 0.813741,-0.58494 1.548018,-1.06353 1.631726,-1.06353 0.08371,0 0.149628,0.20874 0.146486,0.46386 -0.0081,0.65468 -1.49483,2.45737 -2.62073,3.1776 -0.503787,0.32226 -1.194483,0.83026 -1.534881,1.12887 l -0.618906,0.54293 0.109142,-0.6747 z m 43.074649,0.35494 c -0.0497,-0.12949 -0.66892,-0.61526 -1.37607,-1.0795 -1.71633,-1.12675 -3.52925,-3.39619 -3.07549,-3.84995 0.24757,-0.24757 2.54397,1.3423 3.55271,2.45966 0.66709,0.73893 1.28018,1.88723 1.28674,2.41003 0.004,0.35227 -0.26001,0.39301 -0.38789,0.0598 z"
     id="path3774"
     inkscape:connector-curvature="0"
     inkscape:export-filename="/home/ubuntu/git_project/unhcr_exp_2010_2011/img/unhcr_logo_high_quality_res_bw.png"
     inkscape:export-xdpi="85.970985"
     inkscape:export-ydpi="85.970985"
     clip-path="url(#clipPath3798)"
     transform="translate(59.17694,1.5993765)" />
</svg>
